<?xml version="1.0" encoding="utf-8"?>
<!-- Generator: Adobe Illustrator 27.8.1, SVG Export Plug-In . SVG Version: 6.00 Build 0)  -->
<svg version="1.1" id="Ebene_1" xmlns="http://www.w3.org/2000/svg" xmlns:xlink="http://www.w3.org/1999/xlink" x="0px" y="0px"
	 viewBox="0 0 147 44" style="enable-background:new 0 0 147 44;" xml:space="preserve">
<style type="text/css">
	.st0{fill:#5D797D;}
	.st1{fill:#E32036;}
</style>
<g>
	<path class="st0" d="M8.5,1.5c-4,0-6.1,2.1-6.1,6.2c0,4.2,2,6.3,6.1,6.3c4.1,0,6.1-2.1,6.1-6.3C14.6,3.6,12.5,1.5,8.5,1.5L8.5,1.5z
		 M8.5,12.4c-3,0-4.4-1.5-4.4-4.7c0-3.1,1.4-4.6,4.4-4.6c3,0,4.4,1.5,4.4,4.6C12.9,10.9,11.5,12.4,8.5,12.4L8.5,12.4z"/>
	<path class="st0" d="M8.5,15.3c-4,0-6.1,2.1-6.1,6.2c0,4.2,2,6.3,6.1,6.3c4.1,0,6.1-2.1,6.1-6.3C14.6,17.4,12.5,15.3,8.5,15.3
		L8.5,15.3z M8.5,26.2c-3,0-4.4-1.5-4.4-4.7c0-3.1,1.4-4.6,4.4-4.6c3,0,4.4,1.5,4.4,4.6C12.9,24.6,11.5,26.2,8.5,26.2L8.5,26.2z"/>
	<path class="st0" d="M8.5,29c-4,0-6.1,2.1-6.1,6.2c0,4.2,2,6.3,6.1,6.3c4.1,0,6.1-2.1,6.1-6.3C14.6,31.1,12.5,29,8.5,29L8.5,29z
		 M8.5,39.9c-3,0-4.4-1.5-4.4-4.7c0-3.1,1.4-4.6,4.4-4.6c3,0,4.4,1.5,4.4,4.6C12.9,38.4,11.5,39.9,8.5,39.9L8.5,39.9z"/>
	<path class="st0" d="M22.3,1.5c-4,0-6.1,2.1-6.1,6.2c0,4.2,2,6.3,6.1,6.3c4.1,0,6.1-2.1,6.1-6.3C28.5,3.6,26.4,1.5,22.3,1.5
		L22.3,1.5z M22.3,12.4c-3,0-4.4-1.5-4.4-4.7c0-3.1,1.4-4.6,4.4-4.6c3,0,4.4,1.5,4.4,4.6C26.8,10.9,25.3,12.4,22.3,12.4L22.3,12.4z"
		/>
	<path class="st0" d="M22.3,15.3c-4,0-6.1,2.1-6.1,6.2c0,4.2,2,6.3,6.1,6.3c4.1,0,6.1-2.1,6.1-6.3C28.5,17.4,26.4,15.3,22.3,15.3
		L22.3,15.3z M22.3,26.2c-3,0-4.4-1.5-4.4-4.7c0-3.1,1.4-4.6,4.4-4.6c3,0,4.4,1.5,4.4,4.6C26.8,24.6,25.3,26.2,22.3,26.2L22.3,26.2z
		"/>
	<path class="st0" d="M22.3,29c-4,0-6.1,2.1-6.1,6.2c0,4.2,2,6.3,6.1,6.3c4.1,0,6.1-2.1,6.1-6.3C28.5,31.1,26.4,29,22.3,29L22.3,29z
		 M22.3,39.9c-3,0-4.4-1.5-4.4-4.7c0-3.1,1.4-4.6,4.4-4.6c3,0,4.4,1.5,4.4,4.6C26.8,38.4,25.3,39.9,22.3,39.9L22.3,39.9z"/>
	<path class="st0" d="M36.2,14c4.1,0,6.1-2.1,6.1-6.3c0-4.1-2.1-6.2-6.1-6.2c-4,0-6.1,2.1-6.1,6.2C30.1,11.9,32.1,14,36.2,14
		L36.2,14z M36.2,3.1c3,0,4.4,1.5,4.4,4.6c0,3.1-1.4,4.7-4.4,4.7c-3,0-4.4-1.5-4.4-4.7C31.8,4.6,33.2,3.1,36.2,3.1L36.2,3.1z"/>
	<path class="st0" d="M36.2,15.3c-4,0-6.1,2.1-6.1,6.2c0,4.2,2,6.3,6.1,6.3c4.1,0,6.1-2.1,6.1-6.3C42.3,17.4,40.2,15.3,36.2,15.3
		L36.2,15.3z M36.2,26.2c-3,0-4.4-1.5-4.4-4.7c0-3.1,1.4-4.6,4.4-4.6c3,0,4.4,1.5,4.4,4.6C40.6,24.6,39.2,26.2,36.2,26.2L36.2,26.2z
		"/>
	<path class="st0" d="M36.2,29c-4,0-6.1,2.1-6.1,6.2c0,4.2,2,6.3,6.1,6.3c4.1,0,6.1-2.1,6.1-6.3C42.3,31.1,40.2,29,36.2,29L36.2,29z
		 M36.2,39.9c-3,0-4.4-1.5-4.4-4.7c0-3.1,1.4-4.6,4.4-4.6c3,0,4.4,1.5,4.4,4.6C40.6,38.4,39.2,39.9,36.2,39.9L36.2,39.9z"/>
	<path class="st1" d="M67.4,15.3c-5,0-5.6,3.3-5.6,6.2c0,3.1,0.7,6.2,5.7,6.2c1.9,0,3.3-0.4,4.7-1.5l0.1,0l-1-1.2l-0.1,0
		c-0.9,0.6-1.8,1.2-3.7,1.2c-3.2,0-3.9-1.6-4-4h8.8l0-0.1c0-2.3,0-4.3-1.3-5.5C70.2,15.7,69,15.3,67.4,15.3L67.4,15.3z M67.3,16.9
		c3,0,3.2,1.7,3.3,3.6h-7.1C63.7,18,64.8,16.9,67.3,16.9L67.3,16.9z"/>
	<path class="st1" d="M106.6,21.2c0.8-0.5,1.2-1.4,1.2-2.7c0-2.1-1.3-3.1-3.9-3.1h-5.3v12.1h5.2c3,0,4.4-1.1,4.4-3.5
		C108.1,22.6,107.6,21.6,106.6,21.2L106.6,21.2z M103.9,20.5h-3.7V17h3.7c1.9,0,2.2,0.8,2.2,1.6C106.1,19.6,105.9,20.5,103.9,20.5
		L103.9,20.5z M103.9,26h-3.6v-3.9h3.6c1.8,0,2.6,0.6,2.6,1.9C106.4,25.4,105.7,26,103.9,26L103.9,26z"/>
	<path class="st1" d="M57.5,25c-0.7,0.7-1.5,1.1-3.1,1.1c-2.9,0-4.4-1.5-4.4-4.6c0-3.1,1.4-4.6,4.3-4.6c1.2,0,2.3,0.4,3.1,1.1
		l0.2,0.1l1.2-1.2l-0.2-0.2c-1-1-2.5-1.5-4.2-1.5c-4,0-6,2.2-6,6.2c0,4.1,2,6.2,6,6.2c2.4,0,3.6-0.9,4.4-1.6l0.2-0.2l-1.2-1.1
		L57.5,25L57.5,25z"/>
	<polygon class="st1" points="89.3,15.4 87.6,15.4 87.6,27.6 95.5,27.6 95.5,26 89.3,26 89.3,15.4 	"/>
	<polygon class="st1" points="78.3,15.4 76.6,15.4 76.6,27.6 84.5,27.6 84.5,26 78.3,26 78.3,15.4 	"/>
	<polygon class="st1" points="132,21.3 136.1,15.4 134.2,15.4 131.1,20 128,15.4 126.1,15.4 130.1,21.3 125.7,27.6 127.6,27.6 
		131,22.6 134.5,27.6 136.5,27.6 132,21.3 	"/>
	<path class="st0" d="M117.5,15.3c-4,0-6.1,2.1-6.1,6.2c0,4.2,2,6.3,6.1,6.3c4.1,0,6.1-2.1,6.1-6.3
		C123.6,17.4,121.5,15.3,117.5,15.3L117.5,15.3z M117.5,26.2c-3,0-4.4-1.5-4.4-4.7c0-3.1,1.4-4.6,4.4-4.6c3,0,4.4,1.5,4.4,4.6
		C121.9,24.7,120.4,26.2,117.5,26.2L117.5,26.2z"/>
</g>
</svg>
