<?xml version="1.0" encoding="UTF-8"?>
<svg id="uuid-986accb6-03c7-4b9c-ac92-b89a7a744317" data-name="Ebene 1" xmlns="http://www.w3.org/2000/svg" xmlns:xlink="http://www.w3.org/1999/xlink" viewBox="0 0 2995.82591 812.01904">
  <defs>
    <clipPath id="uuid-9110e5c7-2bb0-492f-a2bc-87af104e6854">
      <rect x="0" y="12.01119" width="553.48837" height="553.48837" style="fill: none;"/>
    </clipPath>
    <clipPath id="uuid-585f055f-d4e4-4766-8023-49874c363eb7">
      <rect x="0" y="12.01119" width="553.48837" height="553.48837" style="fill: none;"/>
    </clipPath>
  </defs>
  <g style="clip-path: url(#uuid-9110e5c7-2bb0-492f-a2bc-87af104e6854);">
    <g style="clip-path: url(#uuid-585f055f-d4e4-4766-8023-49874c363eb7);">
      <path d="M155.78023,175.3516v104.33163c0,2.35141.33578,5.37622,1.00827,9.07169h119.95569v-158.76447l-120.96396,45.36114Z"/>
      <path d="M516.58887,12.01085H36.89897C16.52045,12.01085-.00025,28.53149-.00025,48.91007v479.68989c0,20.37942,16.5207,36.89922,36.89922,36.89922h479.68989c20.37948,0,36.89922-16.5198,36.89922-36.89922V48.91007c0-20.37858-16.51975-36.89922-36.89922-36.89922M438.02951,270.61073c0,51.07406-15.20432,97.52741-45.61389,139.361-30.40867,41.83264-68.96559,68.62978-115.67172,80.39049-46.70517-11.76071-85.26209-38.55785-115.67166-80.39049-30.40867-41.83359-45.61299-88.28694-45.61299-139.361v-122.98051l161.28465-60.48152,161.28561,60.48152v122.98051Z"/>
      <path d="M276.74419,448.0246c32.59309-10.07995,59.80995-29.98892,81.6506-59.726,21.84065-29.73709,34.60963-62.91781,38.3051-99.54306h-119.9557v159.26906Z"/>
    </g>
  </g>
  <g>
    <path d="M785.97728,154.87744h-117.38672v-69.92676h319.58398v69.92676h-117.38672v335.31055h-84.81055V154.87744Z"/>
    <path d="M990.14037,189.13867h82.00195v52.51514h1.68555c4.49316-18.53467,12.63672-32.94922,24.43164-43.24805,11.79492-10.29395,26.49023-15.44531,44.09082-15.44531,4.49316,0,8.79785.28076,12.91797.84229,4.11621.56152,7.6748,1.31201,10.67188,2.24658v72.4541c-3.37012-1.49609-7.67969-2.66797-12.91895-3.51025-5.24316-.84229-10.85938-1.26367-16.84961-1.26367-13.47949,0-24.99316,2.62402-34.54199,7.86328-9.54785,5.24365-16.84961,12.91797-21.9043,23.02783-5.05469,10.11035-7.58301,22.4668-7.58301,37.06934v168.49805h-82.00195V189.13867Z"/>
    <path d="M1245.41478,482.74561c-15.54297-9.07812-27.33789-22.04492-35.38477-38.89453-8.05176-16.84961-12.07617-36.97266-12.07617-60.37793v-194.33447h82.00293v177.20361c0,19.6582,4.63281,34.91895,13.90039,45.77539,9.26758,10.86035,23.07227,16.28809,41.42285,16.28809,12.35645,0,22.97949-2.80859,31.87402-8.4248,8.88965-5.61719,15.81836-13.43164,20.78125-23.44922,4.95801-10.01367,7.44238-21.48438,7.44238-34.40234v-172.99072h82.00195v301.04932h-82.00195v-49.70703h-1.96582c-7.67969,17.41211-19.19336,31.08008-34.54199,41.00098-15.35352,9.92188-34.4502,14.88477-57.29004,14.88477-21.9043,0-40.62793-4.54199-56.16504-13.62109Z"/>
    <path d="M1583.67357,484.29053c-19.56641-8.04785-34.7793-19.23633-45.63477-33.55957-10.86035-14.32227-17.41113-30.93457-19.6582-49.84668l-.28125-2.52734h80.03711l.56152,2.52734c2.61914,11.79492,8.5166,20.96973,17.69238,27.52148,9.1709,6.55566,21.9043,9.8291,38.19238,9.8291,10.4834,0,19.37793-1.26367,26.67871-3.79199,7.30176-2.52734,12.96289-6.12988,16.99023-10.81152,4.02441-4.67773,6.03809-10.29395,6.03809-16.84961v-.28125c0-8.04688-2.9043-14.50586-8.70605-19.37695-5.80469-4.86621-16.10352-8.88965-30.89062-12.07617l-51.11133-10.95215c-29.20605-5.98926-51.20703-16.28809-65.99512-30.89062-14.79199-14.60352-22.18555-33.13867-22.18555-55.60449v-.28076c0-19.28076,5.19531-35.94629,15.58594-49.98779s25.08594-24.9458,44.09082-32.7168c19-7.7666,41.2334-11.6543,66.69727-11.6543,26.58203,0,49.18848,4.26074,67.82031,12.77783,18.62695,8.521,32.94922,19.98682,42.9668,34.40137,10.0127,14.41895,15.30469,30.42627,15.86621,48.02197v2.80811h-75.54297l-.28027-2.24658c-1.3125-10.67139-6.31934-19.60986-15.02441-26.81934-8.70605-7.20508-20.6416-10.81152-35.80566-10.81152-9.36426,0-17.50879,1.31201-24.43262,3.93164-6.92871,2.62354-12.26465,6.27441-16.00684,10.95215-3.74805,4.68213-5.61719,10.29834-5.61719,16.84961v.28076c0,7.6792,2.99316,14.13818,8.98633,19.37744,5.99023,5.24316,16.56934,9.45605,31.73438,12.6377l51.11035,10.95215c31.6377,6.55566,54.34082,16.38477,68.10156,29.4873,13.76074,13.10645,20.64062,30.70703,20.64062,52.7959v.28027c0,19.6582-5.61621,36.78906-16.84961,51.39258-11.2334,14.60254-26.72656,25.97656-46.47754,34.12012-19.75391,8.14453-42.54492,12.2168-68.38184,12.2168-27.70996,0-51.34766-4.02832-70.90918-12.07617Z"/>
    <path d="M1872.22631,475.3042c-16.10352-14.04199-24.15137-37.16211-24.15137-69.36523v-155.01807h-41.84277v-61.78223h41.84277v-73.57764h82.84473v73.57764h55.04297v61.78223h-55.04297v146.03174c0,14.04102,3.13379,23.82617,9.4082,29.34668,6.27051,5.52441,15.58594,8.28418,27.94238,8.28418,3.74316,0,7.02051-.14062,9.8291-.4209,2.80859-.28125,5.42773-.60547,7.86328-.9834v60.09766c-4.49316.74609-10.06641,1.44824-16.70898,2.10645-6.64844.6543-14.27832.9834-22.8877.9834-33.32715,0-58.04004-7.02148-74.13965-21.0625Z"/>
    <path d="M2038.19603,84.95068h84.81055v405.2373h-84.81055V84.95068ZM2080.60131,427.00146h115.4209c24.15137,0,42.68652-4.91504,55.60449-14.74414,12.91797-9.82812,19.37793-24.10254,19.37793-42.82617v-.56152c0-12.35645-2.94922-22.79102-8.84668-31.3125-5.89746-8.51758-14.69922-14.92773-26.39746-19.2373-11.70312-4.30371-26.16602-6.45898-43.38867-6.45898h-111.77051v-57.56982h101.66113c23.96191,0,42.16797-4.77393,54.62109-14.32227,12.44824-9.54834,18.6748-23.12012,18.6748-40.72021v-.56152c0-16.09961-5.52441-28.54834-16.56836-37.35059-11.04883-8.79785-26.49512-13.19922-46.33691-13.19922h-112.05176v-63.18652h133.95605c25.64746,0,47.74121,4.12061,66.27539,12.35645,18.53516,8.24072,32.85742,19.9873,42.96777,35.24414,10.10938,15.26172,15.16406,33.27832,15.16406,54.06006v.56152c0,14.98047-3.41797,28.78516-10.25,41.42236-6.83594,12.63721-16.14746,23.12451-27.94238,31.45264-11.79492,8.33301-25.18262,13.52832-40.15918,15.58643v1.68506c18.9082,1.12305,35.66602,6.0376,50.26855,14.74365,14.60352,8.70508,26.06934,20.12695,34.40234,34.26074,8.32812,14.1377,12.49707,30.09766,12.49707,47.88184v.56152c0,23.58984-5.66504,43.99805-16.99023,61.2207-11.33008,17.22754-27.42969,30.56641-48.30273,40.01855-20.87793,9.45605-45.82422,14.18164-74.8418,14.18164h-137.04492v-63.18652Z"/>
    <path d="M2435.71068,483.30811c-15.26172-7.76758-27.14844-18.53516-35.66504-32.2959-8.52148-13.76074-12.77832-29.43848-12.77832-47.03906v-.56152c0-27.33301,10.25-48.81641,30.75098-64.4502,20.50098-15.62988,49.37793-24.66504,86.63574-27.10059l117.38672-7.30176v51.11133l-105.03027,7.02051c-15.72656.93945-27.70996,4.58984-35.94629,10.95312-8.24023,6.36621-12.35645,14.88379-12.35645,25.55469v.5625c0,11.04883,4.21289,19.70605,12.6377,25.97656,8.4248,6.27441,19.75,9.40723,33.98047,9.40723,12.16797,0,23.07227-2.38672,32.7168-7.16113,9.63965-4.77344,17.22266-11.3252,22.74707-19.6582,5.51953-8.32812,8.28418-17.64355,8.28418-27.94238v-91.55029c0-13.29102-4.21191-23.77393-12.63672-31.45264-8.4248-7.6748-20.68945-11.51416-36.78906-11.51416-15.35352,0-27.52148,3.13721-36.50781,9.40771-8.98633,6.2749-14.51074,14.27832-16.56934,24.01074l-.56152,2.52783h-75.26172l.28027-3.37012c1.68555-18.53467,7.90723-35.00732,18.6748-49.42578,10.76367-14.41455,25.74023-25.69629,44.93359-33.84033,19.18848-8.14404,41.9834-12.21582,68.38184-12.21582,26.02051,0,48.58301,4.16846,67.67969,12.49658,19.09668,8.33301,33.93262,20.07959,44.51172,35.24414,10.5752,15.16504,15.86719,32.85742,15.86719,53.07715v206.40967h-82.00293v-44.65234h-1.68457c-5.80566,10.11035-13.10742,18.91211-21.90527,26.39844-8.80176,7.49023-18.86328,13.19922-30.18848,17.13086-11.33008,3.93164-23.5459,5.89746-36.64844,5.89746-20.03516,0-37.67969-3.8877-52.93652-11.6543Z"/>
    <path d="M2736.33959,588.19775c-7.49023-.75098-13.66895-1.59277-18.53516-2.52734v-60.94043c2.80859.56152,6.59961,1.16699,11.37402,1.8252,4.77344.6543,10.15332.9834,16.14746.9834,12.35645,0,22.08887-2.0625,29.20605-6.17871,7.11328-4.12012,12.44824-11.2334,16.00684-21.34277l3.37012-9.8291-106.15332-301.04932h90.14648l67.96094,251.62354-10.95312-16.28809h15.44629l-10.95215,16.28809,67.67969-251.62354h86.77637l-103.3457,306.38525c-7.86328,23.58984-17.74023,42.26465-29.62695,56.02539-11.8916,13.76074-26.16602,23.49316-42.82715,29.20605-16.66504,5.70898-36.13477,8.56543-58.41211,8.56543-8.05176,0-15.82324-.37695-23.30859-1.12305Z"/>
  </g>
</svg>